<?xml version="1.0" encoding="UTF-8" standalone="no"?>
<!-- Created with Inkscape (http://www.inkscape.org/) -->

<svg
   xmlns:dc="http://purl.org/dc/elements/1.1/"
   xmlns:cc="http://creativecommons.org/ns#"
   xmlns:rdf="http://www.w3.org/1999/02/22-rdf-syntax-ns#"
   xmlns:svg="http://www.w3.org/2000/svg"
   xmlns="http://www.w3.org/2000/svg"
   xmlns:sodipodi="http://sodipodi.sourceforge.net/DTD/sodipodi-0.dtd"
   xmlns:inkscape="http://www.inkscape.org/namespaces/inkscape"
   version="1.1"
   id="svg2"
   xml:space="preserve"
   width="67.391396"
   height="48.220924"
   viewBox="0 0 67.391396 48.220924"
   sodipodi:docname="contamined_food.svg"
   inkscape:version="0.92.4 (5da689c313, 2019-01-14)"><metadata
     id="metadata8"><rdf:RDF><cc:Work
         rdf:about=""><dc:format>image/svg+xml</dc:format><dc:type
           rdf:resource="http://purl.org/dc/dcmitype/StillImage" /><dc:title /></cc:Work></rdf:RDF></metadata><defs
     id="defs6"><clipPath
       clipPathUnits="userSpaceOnUse"
       id="clipPath20"><path
         d="M 0,0 H 750 V 500 H 0 Z"
         id="path18"
         inkscape:connector-curvature="0" /></clipPath><clipPath
       clipPathUnits="userSpaceOnUse"
       id="clipPath28"><path
         d="M -18.8179,434.851 H 91.1156 V 324.924 H -18.8179 Z"
         id="path26"
         inkscape:connector-curvature="0" /></clipPath><clipPath
       clipPathUnits="userSpaceOnUse"
       id="clipPath48"><path
         d="m 263.467,412.192 h 52.03 v -52.03 h -52.03 z"
         id="path46"
         inkscape:connector-curvature="0" /></clipPath><clipPath
       clipPathUnits="userSpaceOnUse"
       id="clipPath64"><path
         d="M 66.9308,333.783 H 259.578 V 131.576 H 66.9308 Z"
         id="path62"
         inkscape:connector-curvature="0" /></clipPath><clipPath
       clipPathUnits="userSpaceOnUse"
       id="clipPath84"><path
         d="m 176.983,437.136 h 31.404 v -30.511 h -31.404 z"
         id="path82"
         inkscape:connector-curvature="0" /></clipPath><clipPath
       clipPathUnits="userSpaceOnUse"
       id="clipPath108"><path
         d="M 343.324,420.772 H 482.687 V 291.182 H 343.324 Z"
         id="path106"
         inkscape:connector-curvature="0" /></clipPath><clipPath
       clipPathUnits="userSpaceOnUse"
       id="clipPath124"><path
         d="M 330.118,279.8 H 440.051 V 169.872 H 330.118 Z"
         id="path122"
         inkscape:connector-curvature="0" /></clipPath><clipPath
       clipPathUnits="userSpaceOnUse"
       id="clipPath144"><path
         d="m 328.244,154.468 h 24.759 v -24.056 h -24.759 z"
         id="path142"
         inkscape:connector-curvature="0" /></clipPath><clipPath
       clipPathUnits="userSpaceOnUse"
       id="clipPath160"><path
         d="m 612.403,254.494 h 52.03 v -52.03 h -52.03 z"
         id="path158"
         inkscape:connector-curvature="0" /></clipPath><clipPath
       clipPathUnits="userSpaceOnUse"
       id="clipPath176"><path
         d="M 415.867,178.731 H 608.514 V -23.4754 H 415.867 Z"
         id="path174"
         inkscape:connector-curvature="0" /></clipPath><clipPath
       clipPathUnits="userSpaceOnUse"
       id="clipPath192"><path
         d="m 421.077,138.851 h 37.514 v -37.538 h -37.514 z"
         id="path190"
         inkscape:connector-curvature="0" /></clipPath><clipPath
       clipPathUnits="userSpaceOnUse"
       id="clipPath212"><path
         d="m 470.543,225.606 h 24.76 v -24.057 h -24.76 z"
         id="path210"
         inkscape:connector-curvature="0" /></clipPath><clipPath
       clipPathUnits="userSpaceOnUse"
       id="clipPath228"><path
         d="m 530.533,238.434 h 24.759 v -24.056 h -24.759 z"
         id="path226"
         inkscape:connector-curvature="0" /></clipPath><clipPath
       clipPathUnits="userSpaceOnUse"
       id="clipPath244"><path
         d="M 692.259,263.074 H 831.623 V 133.484 H 692.259 Z"
         id="path242"
         inkscape:connector-curvature="0" /></clipPath><clipPath
       clipPathUnits="userSpaceOnUse"
       id="clipPath266"><path
         d="M 0,500 H 750 V 0 H 0 Z"
         id="path264"
         inkscape:connector-curvature="0" /></clipPath><clipPath
       clipPathUnits="userSpaceOnUse"
       id="clipPath336"><path
         d="M 0,500 H 750 V 0 H 0 Z"
         id="path334"
         inkscape:connector-curvature="0" /></clipPath><clipPath
       clipPathUnits="userSpaceOnUse"
       id="clipPath492"><path
         d="m 262.57,323.771 h 19.85 v -11.263 h -19.85 z"
         id="path490"
         inkscape:connector-curvature="0" /></clipPath><clipPath
       clipPathUnits="userSpaceOnUse"
       id="clipPath760"><path
         d="M 0,500 H 750 V 0 H 0 Z"
         id="path758"
         inkscape:connector-curvature="0" /></clipPath><clipPath
       clipPathUnits="userSpaceOnUse"
       id="clipPath780"><path
         d="M 0,500 H 750 V 0 H 0 Z"
         id="path778"
         inkscape:connector-curvature="0" /></clipPath><clipPath
       clipPathUnits="userSpaceOnUse"
       id="clipPath800"><path
         d="M 0,500 H 750 V 0 H 0 Z"
         id="path798"
         inkscape:connector-curvature="0" /></clipPath><clipPath
       clipPathUnits="userSpaceOnUse"
       id="clipPath820"><path
         d="M 0,500 H 750 V 0 H 0 Z"
         id="path818"
         inkscape:connector-curvature="0" /></clipPath><clipPath
       clipPathUnits="userSpaceOnUse"
       id="clipPath840"><path
         d="M 0,500 H 750 V 0 H 0 Z"
         id="path838"
         inkscape:connector-curvature="0" /></clipPath><clipPath
       clipPathUnits="userSpaceOnUse"
       id="clipPath1414"><path
         d="M 0,500 H 750 V 0 H 0 Z"
         id="path1412"
         inkscape:connector-curvature="0" /></clipPath><clipPath
       clipPathUnits="userSpaceOnUse"
       id="clipPath1496"><path
         d="M 0,500 H 750 V 0 H 0 Z"
         id="path1494"
         inkscape:connector-curvature="0" /></clipPath><clipPath
       clipPathUnits="userSpaceOnUse"
       id="clipPath1574"><path
         d="M 0,500 H 750 V 0 H 0 Z"
         id="path1572"
         inkscape:connector-curvature="0" /></clipPath><clipPath
       clipPathUnits="userSpaceOnUse"
       id="clipPath1592"><path
         d="M 0,500 H 750 V 0 H 0 Z"
         id="path1590"
         inkscape:connector-curvature="0" /></clipPath><clipPath
       clipPathUnits="userSpaceOnUse"
       id="clipPath1698"><path
         d="M 0,500 H 750 V 0 H 0 Z"
         id="path1696"
         inkscape:connector-curvature="0" /></clipPath><clipPath
       clipPathUnits="userSpaceOnUse"
       id="clipPath1810"><path
         d="M 0,500 H 750 V 0 H 0 Z"
         id="path1808"
         inkscape:connector-curvature="0" /></clipPath><clipPath
       clipPathUnits="userSpaceOnUse"
       id="clipPath1910"><path
         d="m 516.607,301.277 h 9.677 v -5.137 h -9.677 z"
         id="path1908"
         inkscape:connector-curvature="0" /></clipPath></defs><sodipodi:namedview
     pagecolor="#ffffff"
     bordercolor="#666666"
     borderopacity="1"
     objecttolerance="10"
     gridtolerance="10"
     guidetolerance="10"
     inkscape:pageopacity="0"
     inkscape:pageshadow="2"
     inkscape:window-width="1920"
     inkscape:window-height="1025"
     id="namedview4"
     showgrid="false"
     fit-margin-top="0"
     fit-margin-left="0"
     fit-margin-right="0"
     fit-margin-bottom="0"
     inkscape:zoom="8.0101056"
     inkscape:cx="8.0744192"
     inkscape:cy="14.199348"
     inkscape:window-x="0"
     inkscape:window-y="27"
     inkscape:window-maximized="1"
     inkscape:current-layer="g1588" /><g
     id="g10"
     inkscape:groupmode="layer"
     inkscape:label="3452529"
     transform="matrix(1.3333333,0,0,-1.3333333,-1150.9799,487.46516)">












<g
   id="g1586"
   transform="translate(375.27596,105.61659)"><g
     id="g1588"
     clip-path="url(#clipPath1592)"><g
       id="g1594"
       transform="translate(534.3672,250.7539)"><path
         d="M 0,0 -0.212,0.029 C -0.259,-0.06 -0.306,-0.148 -0.353,-0.237 -1.138,0.368 -1.372,1.468 -1.269,2.45 -1.204,3.029 -1.051,3.591 -0.897,4.153 -0.414,3.436 0.278,2.857 1.082,2.515 1.132,2.496 1.183,2.477 1.239,2.455 0.589,1.785 0.153,0.918 0,0"
         style="fill:#ffc33e;fill-opacity:1;fill-rule:nonzero;stroke:none"
         id="path1596"
         inkscape:connector-curvature="0" /></g><g
       id="g1598"
       transform="translate(534.3672,250.7539)"><path
         d="M 0,0 C 0.153,0.918 0.589,1.785 1.239,2.455 2.235,2.063 3.445,1.877 3.933,0.938 4.09,0.635 4.145,0.296 4.134,-0.039 4.077,-1.59 2.502,-2.808 0.95,-2.78 c -1.553,0.026 -2.959,1.058 -3.787,2.367 -1.034,-0.61 -2.04,-1.266 -3.011,-1.971 l -0.575,-0.013 c -0.271,0.144 -0.597,0.202 -0.91,0.209 -0.422,0.019 -0.851,-0.034 -1.272,0 0.266,0.245 0.532,0.49 0.683,0.819 0.149,0.323 0.143,0.742 -0.108,0.995 -0.208,0.209 -0.533,0.252 -0.829,0.25 -0.542,-0.008 -1.093,-0.148 -1.578,-0.406 0.324,0.525 0.658,1.113 0.606,1.716 1.927,0.909 3.797,1.97 5.578,3.147 -0.681,0.973 -0.881,2.267 -0.517,3.398 0.117,0.363 0.286,0.712 0.561,0.975 0.383,0.38 0.949,0.549 1.493,0.519 0.711,-0.044 1.394,-0.428 1.799,-1.02 0.559,-0.818 0.54,-1.898 0.338,-2.866 C -0.669,4.94 -0.78,4.545 -0.897,4.153 -1.051,3.591 -1.204,3.029 -1.269,2.45 c -0.103,-0.982 0.131,-2.082 0.916,-2.687 0.047,0.089 0.094,0.177 0.141,0.266 z"
         style="fill:#ffec8d;fill-opacity:1;fill-rule:nonzero;stroke:none"
         id="path1600"
         inkscape:connector-curvature="0" /></g><g
       id="g1602"
       transform="translate(503.3965,235.793)"><path
         d="M 0,0 C 0.545,0.673 0.31,1.729 -0.28,2.358 -0.698,2.813 -1.304,3.127 -1.913,3.063 -1.946,3.059 -1.985,3.056 -2.021,3.045 -2.366,2.979 -2.686,2.776 -2.89,2.49 -3.106,2.311 -3.282,2.093 -3.381,1.835 -3.553,1.381 -3.463,0.85 -3.197,0.437 -2.935,0.032 -2.508,-0.262 -2.048,-0.422 -1.35,-0.663 -0.472,-0.575 0,0 m 24.142,10.796 0.003,-0.009 c -1.21,-0.2 -2.32,-0.922 -3.164,-1.83 C 20.015,7.917 19.345,6.637 18.705,5.371 18.085,4.156 17.488,2.928 16.855,1.719 16.144,0.976 15.389,0.277 14.628,-0.401 12.294,-2.481 9.824,-4.458 7.056,-5.914 4.281,-7.367 1.169,-8.285 -1.957,-8.129 c -4.391,0.212 -8.513,2.561 -11.41,5.865 -0.697,0.801 -1.341,1.686 -1.735,2.659 -0.273,1.098 -0.384,2.232 -0.316,3.376 0.186,2.967 1.591,5.765 3.543,8.009 2.717,3.117 6.606,5.289 10.729,5.544 3.67,0.214 7.244,-1.042 10.844,-1.774 3.538,-0.723 7.524,-0.842 10.465,1.226 0.034,0.02 0.076,0.029 0.112,0.039 0.235,0.058 0.518,0.021 0.678,-0.162 0.097,-0.104 0.151,-0.246 0.174,-0.387 0.008,-0.042 0.01,-0.081 0.013,-0.12 0.051,-0.602 -0.283,-1.19 -0.606,-1.715 0.485,0.258 1.035,0.398 1.577,0.406 0.296,0.002 0.621,-0.041 0.829,-0.25 0.251,-0.254 0.257,-0.672 0.109,-0.995 -0.152,-0.329 -0.417,-0.574 -0.684,-0.82 0.422,-0.033 0.851,0.02 1.273,10e-4 0.313,-0.007 0.638,-0.065 0.91,-0.21 0.095,-0.049 0.182,-0.112 0.265,-0.185 0.314,-0.279 0.452,-0.791 0.213,-1.142 -0.195,-0.283 -0.529,-0.371 -0.884,-0.44 M -8.864,3.428 -8.873,3.425 C -9.099,3.37 -9.316,3.273 -9.511,3.135 -9.515,3.129 -9.523,3.126 -9.523,3.126 -9.541,3.12 -9.557,3.105 -9.578,3.095 c -0.597,-0.313 -1.123,-0.707 -1.392,-1.3 -0.205,-0.459 -0.228,-0.976 -0.243,-1.476 -0.026,-0.75 -0.022,-1.585 0.489,-2.135 0.254,-0.263 0.591,-0.426 0.933,-0.554 0.857,-0.311 1.821,-0.435 2.695,-0.155 0.874,0.279 1.63,1.006 1.788,1.906 0.164,0.996 -0.387,1.969 -1.019,2.75 C -6.821,2.74 -7.424,3.332 -8.196,3.46 -8.42,3.495 -8.645,3.485 -8.864,3.428 m 5.48,10.926 0.019,-0.093 C -4.561,14.046 -5.714,13.597 -6.715,12.908 -7.581,12.314 -8.353,11.543 -8.771,10.583 -9.193,9.626 -9.22,8.46 -8.682,7.562 -8.253,6.828 -7.498,6.338 -6.731,5.97 -4.415,4.856 -1.67,4.652 0.787,5.418 c 2.031,0.636 4.025,2.199 4.166,4.326 0.137,2.031 -1.545,3.845 -3.477,4.482 -1.559,0.515 -3.234,0.425 -4.86,0.128"
         style="fill:#ff9e10;fill-opacity:1;fill-rule:nonzero;stroke:none"
         id="path1604"
         inkscape:connector-curvature="0" /></g><g
       id="g1606"
       transform="translate(520.252,237.5117)"><path
         d="m 0,0 c -1.369,-2.644 -2.854,-5.232 -4.767,-7.504 -2.796,-3.31 -6.7,-5.952 -11.025,-6.175 -3.628,-0.191 -7.187,1.336 -10.067,3.558 -2.878,2.212 -5.253,5.331 -6.098,8.797 0.394,-0.973 1.037,-1.858 1.734,-2.658 2.898,-3.305 7.02,-5.654 11.411,-5.866 3.125,-0.156 6.238,0.762 9.012,2.215 2.769,1.456 5.238,3.433 7.572,5.513 C -1.467,-1.441 -0.712,-0.743 0,0"
         style="fill:#ff7212;fill-opacity:1;fill-rule:nonzero;stroke:none"
         id="path1608"
         inkscape:connector-curvature="0" /></g><g
       id="g1610"
       transform="translate(500.5068,238.2832)"
       style="fill:#d40000"><path
         d="m 0,0 c 0.254,0.222 0.565,0.397 0.868,0.555 0.036,0.01 0.075,0.013 0.109,0.018 0.609,0.064 1.214,-0.25 1.632,-0.705 0.59,-0.63 0.826,-1.685 0.281,-2.358 -0.472,-0.575 -1.35,-0.663 -2.048,-0.422 -0.46,0.16 -0.887,0.454 -1.15,0.858 -0.265,0.413 -0.355,0.945 -0.183,1.399 C -0.393,-0.397 -0.217,-0.18 0,0"
         style="fill:#d40000;fill-opacity:1;fill-rule:nonzero;stroke:none"
         id="path1612"
         inkscape:connector-curvature="0" /></g><g
       id="g1614"
       transform="translate(500.0312,250.0537)"
       style="fill:#d40000"><path
         d="m 0,0 -0.019,0.093 c 1.626,0.298 3.301,0.387 4.86,-0.128 1.932,-0.637 3.614,-2.45 3.477,-4.482 -0.141,-2.127 -2.134,-3.69 -4.166,-4.326 -2.457,-0.765 -5.202,-0.561 -7.518,0.552 -0.767,0.368 -1.522,0.858 -1.95,1.592 -0.538,0.898 -0.512,2.064 -0.089,3.021 0.418,0.96 1.189,1.732 2.055,2.325 C -2.349,-0.664 -1.195,-0.215 0,0"
         style="fill:#d40000;fill-opacity:1;fill-rule:nonzero;stroke:none"
         id="path1616"
         inkscape:connector-curvature="0" /></g><g
       id="g1618"
       transform="translate(493.8184,238.8877)"
       style="fill:#d40000"><path
         d="m 0,0 c 0.021,0.011 0.037,0.025 0.055,0.031 0,0 0.008,0.003 0.012,0.009 0.211,0.1 0.423,0.199 0.638,0.29 L 0.714,0.333 C 0.934,0.391 1.158,0.4 1.382,0.365 2.154,0.237 2.757,-0.354 3.251,-0.964 3.883,-1.745 4.435,-2.718 4.271,-3.714 4.112,-4.613 3.356,-5.341 2.482,-5.62 1.608,-5.899 0.645,-5.775 -0.213,-5.465 c -0.342,0.128 -0.679,0.291 -0.933,0.554 -0.511,0.551 -0.515,1.386 -0.489,2.136 0.015,0.5 0.038,1.016 0.243,1.475 0.269,0.593 0.795,0.988 1.392,1.3"
         style="fill:#d40000;fill-opacity:1;fill-rule:nonzero;stroke:none"
         id="path1620"
         inkscape:connector-curvature="0" /></g><g
       id="g1622"
       transform="translate(491.085,244.4014)"><path
         d="M 0,0 0.001,-0.001 V 0.001 C 0,0.002 0,0.003 -0.001,0.003 -0.001,0.002 0,0.001 0,0"
         style="fill:#6220a8;fill-opacity:1;fill-rule:nonzero;stroke:none"
         id="path1624"
         inkscape:connector-curvature="0" /></g><g
       id="g1626"
       transform="translate(493.0352,244.2363)"
       style="fill:#aa0000"><path
         d="M 0,0 C 0.083,0.363 0.066,0.779 -0.069,1.128 -0.229,1.542 -0.492,1.858 -0.864,2.099 -1.499,2.508 -2.422,2.487 -3.022,2.027 -3.381,1.753 -3.636,1.392 -3.755,0.954 -3.811,0.748 -3.819,0.539 -3.795,0.333 c 0,-0.005 10e-4,-0.01 10e-4,-0.016 10e-4,-0.007 10e-4,-0.015 0.002,-0.023 0.006,-0.197 0.042,-0.395 0.118,-0.578 0.324,-0.779 1.122,-1.305 1.978,-1.194 C -0.878,-1.371 -0.188,-0.821 0,0"
         style="fill:#aa0000;fill-opacity:1;fill-rule:nonzero;stroke:none"
         id="path1628"
         inkscape:connector-curvature="0" /></g><g
       id="g1630"
       transform="translate(491.1045,244.3838)"><path
         d="m 0,0 v -0.002 0.001 z"
         style="fill:#6220a8;fill-opacity:1;fill-rule:nonzero;stroke:none"
         id="path1632"
         inkscape:connector-curvature="0" /></g><g
       id="g1634"
       transform="translate(491.1064,244.3789)"
       style="fill:#aa0000"><path
         d="M 0,0 V 0 -0.001 Z"
         style="fill:#aa0000;fill-opacity:1;fill-rule:nonzero;stroke:none"
         id="path1636"
         inkscape:connector-curvature="0" /></g><g
       id="g1638"
       transform="translate(507.04,254.1704)"
       style="fill:#aa0000"><path
         d="M 0,0 C -0.341,1.591 -2.089,2.459 -3.603,2.174 -3.68,2.16 -3.746,2.127 -3.818,2.106 -4.395,2.017 -4.949,1.708 -5.313,1.263 -5.807,0.66 -5.988,-0.093 -5.854,-0.857 c 0.283,-1.612 1.935,-2.645 3.52,-2.417 0.809,0.116 1.517,0.49 1.982,1.172 C 0.062,-1.493 0.152,-0.708 0,0"
         style="fill:#aa0000;fill-opacity:1;fill-rule:nonzero;stroke:none"
         id="path1640"
         inkscape:connector-curvature="0" /></g><g
       id="g1642"
       transform="translate(498.4687,254.686)"
       style="fill:#aa0000"><path
         d="M 0,0 C 0.015,0.086 0.008,0.171 -0.021,0.255 -0.045,0.341 -0.086,0.416 -0.146,0.478 -0.198,0.552 -0.265,0.609 -0.348,0.649 L -0.517,0.711 C -0.631,0.736 -0.745,0.732 -0.857,0.698 -0.909,0.674 -0.961,0.65 -1.014,0.627 -1.115,0.563 -1.195,0.478 -1.252,0.371 L -1.28,0.318 c -0.046,-0.08 -0.07,-0.165 -0.07,-0.255 -0.014,-0.085 -0.007,-0.17 0.022,-0.254 0.023,-0.087 0.064,-0.161 0.126,-0.224 0.051,-0.074 0.117,-0.131 0.2,-0.171 0.057,-0.021 0.112,-0.041 0.169,-0.062 0.114,-0.025 0.229,-0.02 0.341,0.014 0.052,0.024 0.103,0.047 0.156,0.071 0.102,0.063 0.182,0.149 0.238,0.255 l 0.029,0.054 C -0.023,-0.175 0,-0.09 0,0"
         style="fill:#aa0000;fill-opacity:1;fill-rule:nonzero;stroke:none"
         id="path1644"
         inkscape:connector-curvature="0" /></g><g
       id="g1646"
       transform="translate(501.3809,257.8955)"
       style="fill:#aa0000"><path
         d="M 0,0 C -0.761,0.403 -1.388,-0.779 -0.626,-1.182 0.135,-1.585 0.762,-0.403 0,0"
         style="fill:#aa0000;fill-opacity:1;fill-rule:nonzero;stroke:none"
         id="path1648"
         inkscape:connector-curvature="0" /></g><g
       id="g1650"
       transform="translate(499.1992,258.9146)"
       style="fill:#aa0000"><path
         d="M 0,0 C -0.761,0.403 -1.388,-0.779 -0.626,-1.182 0.135,-1.585 0.762,-0.403 0,0"
         style="fill:#aa0000;fill-opacity:1;fill-rule:nonzero;stroke:none"
         id="path1652"
         inkscape:connector-curvature="0" /></g><g
       id="g1654"
       transform="translate(513.0918,242.6924)"
       style="fill:#aa0000"><path
         d="M 0,0 C 0.006,0.085 0.002,0.167 -0.011,0.251 -0.032,0.385 -0.053,0.515 -0.106,0.64 -0.159,0.762 -0.211,0.879 -0.293,0.983 -0.426,1.152 -0.54,1.255 -0.72,1.376 -0.843,1.459 -0.989,1.51 -1.129,1.553 -1.265,1.594 -1.414,1.605 -1.554,1.606 -1.697,1.608 -1.848,1.582 -1.983,1.538 -2.12,1.494 -2.259,1.431 -2.373,1.343 -2.542,1.212 -2.651,1.093 -2.771,0.915 -2.854,0.794 -2.907,0.647 -2.947,0.508 -2.95,0.494 -2.95,0.481 -2.953,0.469 -3.002,0.322 -3.034,0.172 -3.046,0.017 c -0.018,-0.261 0.065,-0.527 0.192,-0.75 0.129,-0.23 0.334,-0.41 0.558,-0.543 0.232,-0.14 0.49,-0.194 0.756,-0.214 0.267,-0.021 0.52,0.055 0.758,0.171 0.242,0.117 0.427,0.326 0.566,0.55 C -0.07,-0.535 -0.02,-0.269 0,0"
         style="fill:#aa0000;fill-opacity:1;fill-rule:nonzero;stroke:none"
         id="path1656"
         inkscape:connector-curvature="0" /></g><g
       id="g1658"
       transform="translate(514.3047,245.1475)"
       style="fill:#aa0000"><path
         d="M 0,0 C 0.015,0.087 0.008,0.171 -0.021,0.256 -0.045,0.308 -0.069,0.359 -0.093,0.411 -0.156,0.514 -0.241,0.593 -0.349,0.649 L -0.517,0.712 C -0.632,0.737 -0.745,0.732 -0.857,0.698 -0.885,0.689 -0.912,0.682 -0.939,0.673 -1.025,0.65 -1.1,0.608 -1.162,0.548 -1.236,0.496 -1.294,0.43 -1.334,0.347 -1.38,0.267 -1.403,0.182 -1.403,0.092 c -0.015,-0.086 -0.008,-0.171 0.021,-0.255 0.024,-0.052 0.047,-0.104 0.071,-0.156 0.064,-0.102 0.149,-0.182 0.255,-0.239 0.057,-0.02 0.113,-0.041 0.169,-0.061 0.115,-0.026 0.229,-0.021 0.341,0.014 l 0.081,0.025 c 0.087,0.022 0.161,0.064 0.224,0.125 0.074,0.051 0.131,0.118 0.171,0.201 C -0.023,-0.175 -0.001,-0.09 0,0"
         style="fill:#aa0000;fill-opacity:1;fill-rule:nonzero;stroke:none"
         id="path1660"
         inkscape:connector-curvature="0" /></g><g
       id="g1662"
       transform="translate(511.6025,246.0117)"
       style="fill:#aa0000"><path
         d="M 0,0 C 0.024,0.115 0.021,0.229 -0.014,0.341 -0.038,0.394 -0.062,0.445 -0.085,0.497 -0.148,0.6 -0.234,0.679 -0.341,0.735 L -0.394,0.764 C -0.474,0.81 -0.559,0.833 -0.648,0.833 -0.734,0.849 -0.819,0.841 -0.903,0.812 -0.989,0.789 -1.063,0.747 -1.126,0.687 -1.2,0.636 -1.258,0.568 -1.298,0.485 L -1.359,0.317 C -1.385,0.202 -1.38,0.088 -1.346,-0.024 l 0.071,-0.156 c 0.064,-0.102 0.149,-0.182 0.255,-0.239 l 0.053,-0.028 c 0.08,-0.046 0.165,-0.07 0.255,-0.07 0.086,-0.014 0.171,-0.007 0.255,0.022 0.086,0.023 0.161,0.065 0.224,0.126 0.074,0.051 0.13,0.117 0.171,0.2 C -0.042,-0.112 -0.021,-0.057 0,0"
         style="fill:#aa0000;fill-opacity:1;fill-rule:nonzero;stroke:none"
         id="path1664"
         inkscape:connector-curvature="0" /></g><g
       id="g1666"
       transform="translate(513.6348,248.1445)"
       style="fill:#aa0000"><path
         d="M 0,0 C -0.762,0.403 -1.389,-0.779 -0.626,-1.183 0.135,-1.585 0.762,-0.403 0,0"
         style="fill:#aa0000;fill-opacity:1;fill-rule:nonzero;stroke:none"
         id="path1668"
         inkscape:connector-curvature="0" /></g><g
       id="g1670"
       transform="translate(507.2725,235.333)"
       style="fill:#aa0000"><path
         d="M 0,0 C 0.015,0.086 0.008,0.171 -0.021,0.255 -0.045,0.307 -0.068,0.358 -0.093,0.41 -0.156,0.513 -0.241,0.593 -0.348,0.649 -0.404,0.67 -0.46,0.69 -0.517,0.711 -0.631,0.736 -0.745,0.731 -0.857,0.697 L -0.938,0.672 C -1.024,0.649 -1.1,0.607 -1.162,0.547 -1.236,0.496 -1.293,0.429 -1.333,0.346 -1.38,0.266 -1.402,0.181 -1.403,0.091 -1.418,0.005 -1.411,-0.08 -1.382,-0.164 c 0.025,-0.052 0.048,-0.104 0.071,-0.155 0.064,-0.103 0.15,-0.183 0.256,-0.24 l 0.168,-0.061 c 0.116,-0.026 0.229,-0.021 0.342,0.014 0.026,0.008 0.054,0.016 0.081,0.025 0.086,0.022 0.16,0.064 0.223,0.125 0.074,0.051 0.132,0.118 0.172,0.201 C -0.023,-0.175 0,-0.09 0,0"
         style="fill:#aa0000;fill-opacity:1;fill-rule:nonzero;stroke:none"
         id="path1672"
         inkscape:connector-curvature="0" /></g><g
       id="g1674"
       transform="translate(509.7656,235.2148)"
       style="fill:#aa0000"><path
         d="m 0,0 c 0.024,0.115 0.021,0.229 -0.015,0.342 l -0.07,0.155 C -0.148,0.6 -0.234,0.68 -0.341,0.736 L -0.394,0.765 C -0.474,0.811 -0.559,0.834 -0.648,0.834 -0.734,0.849 -0.819,0.842 -0.903,0.812 -0.989,0.789 -1.063,0.747 -1.126,0.687 -1.2,0.636 -1.258,0.569 -1.298,0.486 -1.318,0.43 -1.339,0.374 -1.359,0.317 -1.385,0.203 -1.38,0.089 -1.346,-0.023 c 0.024,-0.052 0.047,-0.105 0.071,-0.157 0.064,-0.101 0.149,-0.181 0.255,-0.238 l 0.053,-0.028 c 0.08,-0.046 0.165,-0.07 0.255,-0.07 0.086,-0.014 0.171,-0.007 0.255,0.022 0.086,0.022 0.16,0.064 0.224,0.125 0.074,0.052 0.13,0.118 0.171,0.201 z"
         style="fill:#aa0000;fill-opacity:1;fill-rule:nonzero;stroke:none"
         id="path1676"
         inkscape:connector-curvature="0" /></g><g
       id="g1678"
       transform="translate(509.0352,232.4951)"
       style="fill:#aa0000"><path
         d="M 0,0 C 0.016,0.086 0.008,0.171 -0.021,0.255 -0.044,0.341 -0.086,0.415 -0.146,0.478 -0.197,0.552 -0.265,0.609 -0.348,0.649 -0.403,0.67 -0.46,0.69 -0.516,0.711 -0.631,0.736 -0.745,0.731 -0.857,0.697 -0.909,0.674 -0.961,0.65 -1.013,0.626 -1.115,0.562 -1.194,0.478 -1.252,0.371 l -0.084,-0.16 c -0.046,-0.079 -0.069,-0.164 -0.069,-0.254 -0.016,-0.086 -0.008,-0.171 0.021,-0.255 0.023,-0.087 0.065,-0.161 0.125,-0.223 0.051,-0.075 0.118,-0.131 0.201,-0.171 0.056,-0.022 0.113,-0.042 0.168,-0.063 0.116,-0.024 0.23,-0.02 0.342,0.014 0.052,0.023 0.104,0.048 0.155,0.071 0.103,0.064 0.182,0.149 0.24,0.256 l 0.084,0.159 C -0.023,-0.176 0,-0.091 0,0"
         style="fill:#aa0000;fill-opacity:1;fill-rule:nonzero;stroke:none"
         id="path1680"
         inkscape:connector-curvature="0" /></g><g
       id="g1682"
       transform="translate(506.0498,231.8877)"
       style="fill:#aa0000"><path
         d="M 0,0 C -0.761,0.402 -1.388,-0.779 -0.626,-1.183 0.135,-1.585 0.762,-0.403 0,0"
         style="fill:#aa0000;fill-opacity:1;fill-rule:nonzero;stroke:none"
         id="path1684"
         inkscape:connector-curvature="0" /></g></g></g>



</g></svg>