<?xml version="1.0" encoding="UTF-8" standalone="no"?>
<!-- Created with Inkscape (http://www.inkscape.org/) -->

<svg
   xmlns:dc="http://purl.org/dc/elements/1.1/"
   xmlns:cc="http://creativecommons.org/ns#"
   xmlns:rdf="http://www.w3.org/1999/02/22-rdf-syntax-ns#"
   xmlns:svg="http://www.w3.org/2000/svg"
   xmlns="http://www.w3.org/2000/svg"
   xmlns:sodipodi="http://sodipodi.sourceforge.net/DTD/sodipodi-0.dtd"
   xmlns:inkscape="http://www.inkscape.org/namespaces/inkscape"
   version="1.1"
   id="svg2"
   xml:space="preserve"
   width="77.593735"
   height="55.996929"
   viewBox="0 0 77.593735 55.996929"
   sodipodi:docname="human_contact.svg"
   inkscape:version="0.92.4 (5da689c313, 2019-01-14)"><metadata
     id="metadata8"><rdf:RDF><cc:Work
         rdf:about=""><dc:format>image/svg+xml</dc:format><dc:type
           rdf:resource="http://purl.org/dc/dcmitype/StillImage" /><dc:title /></cc:Work></rdf:RDF></metadata><defs
     id="defs6"><clipPath
       clipPathUnits="userSpaceOnUse"
       id="clipPath20"><path
         d="M 0,0 H 750 V 500 H 0 Z"
         id="path18"
         inkscape:connector-curvature="0" /></clipPath><clipPath
       clipPathUnits="userSpaceOnUse"
       id="clipPath28"><path
         d="M -18.8179,434.851 H 91.1156 V 324.924 H -18.8179 Z"
         id="path26"
         inkscape:connector-curvature="0" /></clipPath><clipPath
       clipPathUnits="userSpaceOnUse"
       id="clipPath48"><path
         d="m 263.467,412.192 h 52.03 v -52.03 h -52.03 z"
         id="path46"
         inkscape:connector-curvature="0" /></clipPath><clipPath
       clipPathUnits="userSpaceOnUse"
       id="clipPath64"><path
         d="M 66.9308,333.783 H 259.578 V 131.576 H 66.9308 Z"
         id="path62"
         inkscape:connector-curvature="0" /></clipPath><clipPath
       clipPathUnits="userSpaceOnUse"
       id="clipPath84"><path
         d="m 176.983,437.136 h 31.404 v -30.511 h -31.404 z"
         id="path82"
         inkscape:connector-curvature="0" /></clipPath><clipPath
       clipPathUnits="userSpaceOnUse"
       id="clipPath108"><path
         d="M 343.324,420.772 H 482.687 V 291.182 H 343.324 Z"
         id="path106"
         inkscape:connector-curvature="0" /></clipPath><clipPath
       clipPathUnits="userSpaceOnUse"
       id="clipPath124"><path
         d="M 330.118,279.8 H 440.051 V 169.872 H 330.118 Z"
         id="path122"
         inkscape:connector-curvature="0" /></clipPath><clipPath
       clipPathUnits="userSpaceOnUse"
       id="clipPath144"><path
         d="m 328.244,154.468 h 24.759 v -24.056 h -24.759 z"
         id="path142"
         inkscape:connector-curvature="0" /></clipPath><clipPath
       clipPathUnits="userSpaceOnUse"
       id="clipPath160"><path
         d="m 612.403,254.494 h 52.03 v -52.03 h -52.03 z"
         id="path158"
         inkscape:connector-curvature="0" /></clipPath><clipPath
       clipPathUnits="userSpaceOnUse"
       id="clipPath176"><path
         d="M 415.867,178.731 H 608.514 V -23.4754 H 415.867 Z"
         id="path174"
         inkscape:connector-curvature="0" /></clipPath><clipPath
       clipPathUnits="userSpaceOnUse"
       id="clipPath192"><path
         d="m 421.077,138.851 h 37.514 v -37.538 h -37.514 z"
         id="path190"
         inkscape:connector-curvature="0" /></clipPath><clipPath
       clipPathUnits="userSpaceOnUse"
       id="clipPath212"><path
         d="m 470.543,225.606 h 24.76 v -24.057 h -24.76 z"
         id="path210"
         inkscape:connector-curvature="0" /></clipPath><clipPath
       clipPathUnits="userSpaceOnUse"
       id="clipPath228"><path
         d="m 530.533,238.434 h 24.759 v -24.056 h -24.759 z"
         id="path226"
         inkscape:connector-curvature="0" /></clipPath><clipPath
       clipPathUnits="userSpaceOnUse"
       id="clipPath244"><path
         d="M 692.259,263.074 H 831.623 V 133.484 H 692.259 Z"
         id="path242"
         inkscape:connector-curvature="0" /></clipPath><clipPath
       clipPathUnits="userSpaceOnUse"
       id="clipPath266"><path
         d="M 0,500 H 750 V 0 H 0 Z"
         id="path264"
         inkscape:connector-curvature="0" /></clipPath><clipPath
       clipPathUnits="userSpaceOnUse"
       id="clipPath336"><path
         d="M 0,500 H 750 V 0 H 0 Z"
         id="path334"
         inkscape:connector-curvature="0" /></clipPath><clipPath
       clipPathUnits="userSpaceOnUse"
       id="clipPath492"><path
         d="m 262.57,323.771 h 19.85 v -11.263 h -19.85 z"
         id="path490"
         inkscape:connector-curvature="0" /></clipPath><clipPath
       clipPathUnits="userSpaceOnUse"
       id="clipPath760"><path
         d="M 0,500 H 750 V 0 H 0 Z"
         id="path758"
         inkscape:connector-curvature="0" /></clipPath><clipPath
       clipPathUnits="userSpaceOnUse"
       id="clipPath780"><path
         d="M 0,500 H 750 V 0 H 0 Z"
         id="path778"
         inkscape:connector-curvature="0" /></clipPath><clipPath
       clipPathUnits="userSpaceOnUse"
       id="clipPath800"><path
         d="M 0,500 H 750 V 0 H 0 Z"
         id="path798"
         inkscape:connector-curvature="0" /></clipPath><clipPath
       clipPathUnits="userSpaceOnUse"
       id="clipPath820"><path
         d="M 0,500 H 750 V 0 H 0 Z"
         id="path818"
         inkscape:connector-curvature="0" /></clipPath><clipPath
       clipPathUnits="userSpaceOnUse"
       id="clipPath840"><path
         d="M 0,500 H 750 V 0 H 0 Z"
         id="path838"
         inkscape:connector-curvature="0" /></clipPath><clipPath
       clipPathUnits="userSpaceOnUse"
       id="clipPath1414"><path
         d="M 0,500 H 750 V 0 H 0 Z"
         id="path1412"
         inkscape:connector-curvature="0" /></clipPath><clipPath
       clipPathUnits="userSpaceOnUse"
       id="clipPath1496"><path
         d="M 0,500 H 750 V 0 H 0 Z"
         id="path1494"
         inkscape:connector-curvature="0" /></clipPath><clipPath
       clipPathUnits="userSpaceOnUse"
       id="clipPath1574"><path
         d="M 0,500 H 750 V 0 H 0 Z"
         id="path1572"
         inkscape:connector-curvature="0" /></clipPath><clipPath
       clipPathUnits="userSpaceOnUse"
       id="clipPath1592"><path
         d="M 0,500 H 750 V 0 H 0 Z"
         id="path1590"
         inkscape:connector-curvature="0" /></clipPath><clipPath
       clipPathUnits="userSpaceOnUse"
       id="clipPath1698"><path
         d="M 0,500 H 750 V 0 H 0 Z"
         id="path1696"
         inkscape:connector-curvature="0" /></clipPath><clipPath
       clipPathUnits="userSpaceOnUse"
       id="clipPath1810"><path
         d="M 0,500 H 750 V 0 H 0 Z"
         id="path1808"
         inkscape:connector-curvature="0" /></clipPath><clipPath
       clipPathUnits="userSpaceOnUse"
       id="clipPath1910"><path
         d="m 516.607,301.277 h 9.677 v -5.137 h -9.677 z"
         id="path1908"
         inkscape:connector-curvature="0" /></clipPath></defs><sodipodi:namedview
     pagecolor="#ffffff"
     bordercolor="#666666"
     borderopacity="1"
     objecttolerance="10"
     gridtolerance="10"
     guidetolerance="10"
     inkscape:pageopacity="0"
     inkscape:pageshadow="2"
     inkscape:window-width="1920"
     inkscape:window-height="1025"
     id="namedview4"
     showgrid="false"
     fit-margin-top="0"
     fit-margin-left="0"
     fit-margin-right="0"
     fit-margin-bottom="0"
     inkscape:zoom="4.0050528"
     inkscape:cx="-94.527487"
     inkscape:cy="14.408017"
     inkscape:window-x="0"
     inkscape:window-y="27"
     inkscape:window-maximized="1"
     inkscape:current-layer="g1824" /><g
     id="g10"
     inkscape:groupmode="layer"
     inkscape:label="3452529"
     transform="matrix(1.3333333,0,0,-1.3333333,-550.63052,805.48025)"><path
   d="M 0,0 H 750 V 500 H 0 Z"
   style="fill:#ffffff;fill-opacity:1;fill-rule:nonzero;stroke:none"
   id="path12"
   inkscape:connector-curvature="0" />













<g
   id="g1692"
   inkscape:export-filename="/home/orion/Documents/projects/covid-19-landing-page-template/public/images/human_contact.svg.png"
   inkscape:export-xdpi="90"
   inkscape:export-ydpi="90"
   transform="translate(-70.0264,233.3477)"><g
     id="g1694"
     clip-path="url(#clipPath1698)"><g
       id="g1824"><g
         style="fill:#008000"
         transform="translate(535.0596,341.687)"
         id="g1700"><path
           inkscape:connector-curvature="0"
           id="path1702"
           style="fill:#008000;fill-opacity:1;fill-rule:nonzero;stroke:none"
           d="m 0,0 -0.041,-0.018 c -0.199,0.502 -0.397,1.005 -0.603,1.501 -1.98,4.947 -4.018,9.858 -6.114,14.751 -0.181,0.438 -0.369,0.87 -0.556,1.308 3.551,0.139 7.103,0.27 10.655,0.397 C 4.329,12.022 5.486,5.69 6.135,-0.263 4.09,-0.177 2.045,-0.091 0,0" /></g><g
         transform="translate(528.4043,337.5962)"
         id="g1704"
         style="fill:#e53e3e;fill-opacity:1"><path
           inkscape:connector-curvature="0"
           id="path1706"
           style="fill:#e53e3e;fill-opacity:1;fill-rule:nonzero;stroke:none"
           d="m 0,0 c -0.97,-0.013 -1.935,0.413 -2.59,1.125 l 0.041,0.035 c -0.45,0.806 -0.352,1.858 0.138,2.647 0.489,0.783 1.324,1.316 2.218,1.562 C 0.566,5.574 1.355,5.587 2.138,5.494 2.214,5.459 2.284,5.413 2.349,5.36 3.22,4.712 3.519,3.41 3.176,2.352 2.773,1.125 1.629,0.177 0.35,0.024 0.233,0.006 0.116,0 0,0" /></g><g
         style="fill:#9c7248;fill-opacity:1"
         transform="translate(494.4453,340.582)"
         id="g1708"><path
           inkscape:connector-curvature="0"
           id="path1710"
           style="fill:#9c7248;fill-opacity:1;fill-rule:nonzero;stroke:none"
           d="m 0,0 c 0.053,0.059 0.111,0.111 0.17,0.164 1.22,1.134 2.434,2.275 3.653,3.41 3.51,1.136 6.734,3.155 9.283,5.822 0.135,0.146 0.281,0.292 0.467,0.363 0.327,0.123 0.684,-0.034 1.005,-0.18 2.058,-0.968 4.227,-1.748 6.487,-2.009 2.192,-0.249 4.476,0.022 6.438,1.029 l -0.012,0.023 c 0.071,0.041 0.14,0.088 0.198,0.152 0.246,0.257 0.263,0.661 0.233,1.017 -0.213,2.36 -1.857,4.362 -2.279,6.693 -0.135,0.747 -0.16,1.565 -0.61,2.184 -0.299,0.415 -0.749,0.683 -1.205,0.91 -0.145,0.076 -0.292,0.146 -0.444,0.216 l 0.449,0.965 c 2.256,-1.05 4.507,-2.099 6.757,-3.148 l -0.006,-0.029 c 1.081,-0.186 2.174,-0.261 3.272,-0.243 C 35.952,12.446 37.99,7.535 39.971,2.588 38.749,2.517 37.528,2.445 36.308,2.374 36.243,2.427 36.173,2.473 36.097,2.508 35.314,2.601 34.525,2.588 33.766,2.383 32.872,2.137 32.037,1.604 31.548,0.821 31.058,0.032 30.96,-1.02 31.41,-1.826 l -0.041,-0.035 c -0.053,0.053 -0.099,0.111 -0.14,0.17 -0.123,0.075 -0.287,0.081 -0.415,0.017 -0.099,-0.047 -0.181,-0.135 -0.274,-0.2 -0.356,-0.233 -0.824,-0.059 -1.216,0.116 -0.842,0.373 -1.706,0.717 -2.618,0.839 -0.911,0.122 -1.881,0.004 -2.663,-0.482 -0.964,-0.602 -1.535,-1.766 -1.452,-2.899 -0.035,0.029 -0.07,0.052 -0.106,0.07 -1.081,0.682 -2.489,0.874 -3.639,0.335 C 18.115,-4.24 17.538,-4.89 17.27,-5.638 17.229,-5.632 17.194,-5.626 17.153,-5.62 16.131,-5.481 15.05,-5.879 14.373,-6.663 14.11,-6.967 13.9,-7.335 13.831,-7.732 13.796,-7.919 13.796,-8.106 13.82,-8.293 12.441,-8.809 10.923,-8.922 9.479,-8.613 l 0.018,0.075 c 2.049,1.931 3.84,4.135 5.31,6.538 C 12.652,-3.574 10.469,-5.16 8.005,-6.167 7.596,-6.337 7.176,-6.489 6.749,-6.595 6.334,-6.706 5.908,-6.783 5.476,-6.789 c -0.661,-0.012 -1.338,0.145 -1.9,0.483 2.119,1.983 4.127,4.077 6.028,6.269 0.987,1.141 1.961,2.327 2.591,3.695 C 9.207,1.079 6.031,-1.262 2.703,-3.362 2.668,-3.368 2.639,-3.368 2.604,-3.374 1.412,-3.457 0.185,-2.751 -0.319,-1.66 -0.454,-1.356 -0.542,-1.011 -0.455,-0.684 -0.385,-0.415 -0.204,-0.199 0,0" /></g><g
         transform="translate(495.8633,359.3604)"
         id="g1712"
         style="fill:#ffcc00"><path
           inkscape:connector-curvature="0"
           id="path1714"
           style="fill:#ffcc00;fill-opacity:1;fill-rule:nonzero;stroke:none"
           d="m 0,0 c -1.928,-5.394 -3.851,-10.789 -5.778,-16.183 -0.123,-0.357 -0.251,-0.707 -0.379,-1.064 -1.893,0.028 -4.809,0.153 -6.707,0.245 1.717,6.65 3.369,13.312 4.963,19.991 C -5.786,2.337 -2.157,1.739 0.42,1.175 0.28,0.783 0.14,0.392 0,0" /></g><g
         transform="translate(522.1514,332.8579)"
         id="g1716"
         style="fill:#e53e3e;fill-opacity:1"><path
           inkscape:connector-curvature="0"
           id="path1718"
           style="fill:#e53e3e;fill-opacity:1;fill-rule:nonzero;stroke:none"
           d="M 0,0 C -1.197,0.115 -2.343,0.605 -3.325,1.305 -4.039,1.812 -4.682,2.455 -5.086,3.22 -5.098,3.29 -5.104,3.36 -5.115,3.424 -5.198,4.557 -4.627,5.721 -3.663,6.323 -2.881,6.809 -1.911,6.927 -1,6.805 -0.088,6.683 0.776,6.339 1.618,5.966 2.01,5.792 2.478,5.617 2.834,5.851 2.927,5.915 3.009,6.003 3.108,6.05 3.236,6.114 3.4,6.108 3.522,6.033 3.563,5.974 3.61,5.916 3.663,5.863 4.318,5.151 5.283,4.726 6.253,4.738 6.021,3.383 5.285,2.126 4.217,1.254 3.126,0.365 1.7,-0.104 0.298,-0.029 0.199,-0.023 0.1,-0.018 0,0" /></g><g
         transform="translate(509.7725,354.8936)"
         id="g1720"
         style="fill:#e53e3e;fill-opacity:1"><path
           inkscape:connector-curvature="0"
           id="path1722"
           style="fill:#e53e3e;fill-opacity:1;fill-rule:nonzero;stroke:none"
           d="m 0,0 c -3.834,-3.579 -7.669,-7.159 -11.504,-10.738 -1.22,-1.135 -2.434,-2.275 -3.653,-3.41 -0.059,-0.052 -0.117,-0.105 -0.17,-0.164 -0.116,0.076 -0.222,0.164 -0.333,0.251 -1.204,0.946 -2.537,1.727 -3.952,2.316 l -0.075,0.029 c 1.927,5.394 3.85,10.789 5.778,16.183 2.319,0.166 4.615,0.636 6.816,1.386 1.613,0.55 3.178,1.248 4.66,2.09 0.339,0.187 0.69,0.392 1.076,0.422 0.309,0.03 0.613,-0.058 0.911,-0.145 C 1.312,7.708 3.061,7.184 4.808,6.648 5.906,6.304 7.011,5.96 8.057,5.482 8.209,5.413 8.355,5.343 8.501,5.267 8.957,5.04 9.407,4.771 9.706,4.357 c 0.45,-0.619 0.475,-1.437 0.609,-2.185 0.423,-2.33 2.067,-4.333 2.28,-6.693 0.03,-0.356 0.012,-0.759 -0.233,-1.017 -0.058,-0.064 -0.128,-0.11 -0.198,-0.151 C 11.925,-5.824 11.621,-5.848 11.34,-5.842 8.524,-5.804 5.806,-3.967 4.723,-1.362 4.646,-1.187 4.57,-0.994 4.4,-0.901 4.266,-0.831 4.108,-0.843 3.956,-0.849 2.596,-0.92 1.21,-0.624 0,0" /></g><g
         style="fill:#9c7248;fill-opacity:1"
         transform="translate(521.9365,349.2041)"
         id="g1724"><path
           inkscape:connector-curvature="0"
           id="path1726"
           style="fill:#9c7248;fill-opacity:1;fill-rule:nonzero;stroke:none"
           d="m 0,0 0.012,-0.023 c -1.962,-1.007 -4.246,-1.278 -6.438,-1.029 -2.261,0.26 -4.429,1.041 -6.487,2.009 -0.321,0.146 -0.678,0.303 -1.005,0.18 -0.186,-0.071 -0.332,-0.217 -0.467,-0.363 -2.55,-2.667 -5.773,-4.686 -9.283,-5.822 3.835,3.579 7.67,7.158 11.504,10.737 1.21,-0.623 2.596,-0.92 3.956,-0.848 0.152,0.006 0.31,0.017 0.444,-0.052 0.17,-0.094 0.246,-0.287 0.323,-0.461 1.083,-2.605 3.801,-4.443 6.617,-4.481 C -0.543,-0.158 -0.239,-0.135 0,0" /></g><g
         transform="translate(511.7148,334.9443)"
         id="g1728"
         style="fill:#e53e3e;fill-opacity:1"><path
           inkscape:connector-curvature="0"
           id="path1730"
           style="fill:#e53e3e;fill-opacity:1;fill-rule:nonzero;stroke:none"
           d="M 0,0 C 0.269,0.748 0.846,1.397 1.576,1.743 2.727,2.281 4.135,2.09 5.216,1.408 5.251,1.314 5.298,1.221 5.351,1.133 5.755,0.368 6.397,-0.274 7.111,-0.781 8.094,-1.481 9.239,-1.971 10.437,-2.086 10.128,-3.15 9.235,-3.981 8.213,-4.408 7.15,-4.842 5.965,-4.884 4.831,-4.745 4.79,-4.739 4.749,-4.733 4.708,-4.728 3.458,-4.553 2.213,-4.146 1.254,-3.323 0.465,-2.64 -0.092,-1.642 -0.146,-0.607 -0.122,-0.403 -0.075,-0.199 0,0" /></g><g
         style="fill:#9c7248;fill-opacity:1"
         transform="translate(518.2783,361.3408)"
         id="g1732"><path
           inkscape:connector-curvature="0"
           id="path1734"
           style="fill:#9c7248;fill-opacity:1;fill-rule:nonzero;stroke:none"
           d="M 0,0 -0.449,-0.965 C -1.495,-0.487 -2.6,-0.143 -3.698,0.201 -5.445,0.736 -7.193,1.26 -8.952,1.772 -9.25,1.86 -9.554,1.947 -9.863,1.917 -10.249,1.888 -10.6,1.683 -10.938,1.496 c -1.483,-0.843 -3.048,-1.54 -4.661,-2.091 l -0.017,0.059 c -1.203,-0.171 -2.465,0.196 -3.395,0.978 -0.468,0.402 -0.866,1.103 -0.499,1.6 0.182,0.246 0.497,0.345 0.789,0.427 1.735,0.487 3.563,0.735 5.145,1.595 0.637,0.351 1.256,0.807 1.98,0.89 0.742,0.083 1.466,-0.238 2.145,-0.559 C -6.301,2.932 -3.15,1.463 0,0" /></g><g
         transform="translate(511.5693,334.3369)"
         id="g1736"
         style="fill:#e53e3e;fill-opacity:1"><path
           inkscape:connector-curvature="0"
           id="path1738"
           style="fill:#e53e3e;fill-opacity:1;fill-rule:nonzero;stroke:none"
           d="M 0,0 C 0.054,-1.034 0.61,-2.033 1.399,-2.715 2.358,-3.538 3.604,-3.946 4.854,-4.12 3.82,-5.149 2.32,-5.694 0.865,-5.549 c -1.455,0.138 -2.829,0.961 -3.642,2.181 -0.263,0.397 -0.474,0.852 -0.527,1.32 -0.024,0.187 -0.024,0.374 0.011,0.561 0.069,0.397 0.279,0.765 0.542,1.069 0.677,0.784 1.758,1.182 2.78,1.043 C 0,0.415 -0.012,0.204 0,0" /></g><g
         style="fill:#9c7248;fill-opacity:1"
         transform="translate(502.4502,334.415)"
         id="g1740"><path
           inkscape:connector-curvature="0"
           id="path1742"
           style="fill:#9c7248;fill-opacity:1;fill-rule:nonzero;stroke:none"
           d="M 0,0 C 2.464,1.007 4.647,2.593 6.802,4.167 5.332,1.764 3.541,-0.44 1.492,-2.371 L 1.475,-2.446 C 1.445,-2.44 1.41,-2.435 1.381,-2.429 0.791,-2.295 0.2,-2.085 -0.291,-1.724 -0.735,-1.403 -1.098,-0.948 -1.256,-0.428 -0.829,-0.322 -0.409,-0.17 0,0" /></g><g
         style="fill:#9c7248;fill-opacity:1"
         transform="translate(497.1484,337.2197)"
         id="g1744"><path
           inkscape:connector-curvature="0"
           id="path1746"
           style="fill:#9c7248;fill-opacity:1;fill-rule:nonzero;stroke:none"
           d="M 0,0 C 3.328,2.101 6.504,4.441 9.492,7.021 8.862,5.652 7.888,4.466 6.901,3.325 5,1.133 2.992,-0.961 0.873,-2.944 c -0.175,0.117 -0.345,0.245 -0.491,0.397 -0.614,0.619 -0.866,1.623 -0.476,2.401 L -0.1,-0.012 C -0.064,-0.006 -0.035,-0.006 0,0" /></g><g
         transform="translate(507.875,358.4976)"
         id="g1748"
         style="fill:#aa0000"><path
           inkscape:connector-curvature="0"
           id="path1750"
           style="fill:#aa0000;fill-opacity:1;fill-rule:nonzero;stroke:none"
           d="m 0,0 c 0,-0.739 -0.598,-1.338 -1.336,-1.339 -0.738,0 -1.338,0.598 -1.339,1.336 -0.001,0.738 0.598,1.338 1.336,1.338 C -0.601,1.336 -0.001,0.738 0,0" /></g><g
         transform="translate(501.0508,355.626)"
         id="g1752"
         style="fill:#aa0000"><path
           inkscape:connector-curvature="0"
           id="path1754"
           style="fill:#aa0000;fill-opacity:1;fill-rule:nonzero;stroke:none"
           d="m 0,0 c -0.349,-0.35 -0.915,-0.351 -1.265,-0.001 -0.349,0.349 -0.35,0.915 -0.002,1.265 0.35,0.35 0.916,0.35 1.266,10e-4 C 0.349,0.916 0.35,0.35 0,0" /></g><g
         transform="translate(505.8789,354.5547)"
         id="g1756"
         style="fill:#aa0000"><path
           inkscape:connector-curvature="0"
           id="path1758"
           style="fill:#aa0000;fill-opacity:1;fill-rule:nonzero;stroke:none"
           d="m 0,0 c 0.001,-0.652 -0.527,-1.182 -1.18,-1.183 -0.653,-10e-4 -1.182,0.528 -1.183,1.181 0,0.652 0.528,1.182 1.18,1.182 C -0.53,1.181 0,0.653 0,0" /></g><g
         transform="translate(518.79,357.7451)"
         id="g1760"
         style="fill:#aa0000"><path
           inkscape:connector-curvature="0"
           id="path1762"
           style="fill:#aa0000;fill-opacity:1;fill-rule:nonzero;stroke:none"
           d="m 0,0 c 0.002,-1.276 -1.032,-2.312 -2.308,-2.313 -1.276,-10e-4 -2.312,1.032 -2.313,2.308 -10e-4,1.276 1.032,2.312 2.308,2.313 C -1.037,2.31 -0.001,1.276 0,0" /></g><g
         transform="translate(520.4805,352.2852)"
         id="g1764"
         style="fill:#aa0000"><path
           inkscape:connector-curvature="0"
           id="path1766"
           style="fill:#aa0000;fill-opacity:1;fill-rule:nonzero;stroke:none"
           d="m 0,0 c 0.001,-0.783 -0.633,-1.418 -1.416,-1.419 -0.783,-10e-4 -1.419,0.633 -1.42,1.416 -0.001,0.783 0.634,1.419 1.417,1.42 C -0.636,1.417 -0.001,0.783 0,0" /></g><g
         transform="translate(512.9131,356.1113)"
         id="g1768"
         style="fill:#aa0000"><path
           inkscape:connector-curvature="0"
           id="path1770"
           style="fill:#aa0000;fill-opacity:1;fill-rule:nonzero;stroke:none"
           d="m 0,0 c 0,-0.377 -0.305,-0.683 -0.683,-0.684 -0.377,0 -0.682,0.306 -0.682,0.683 -0.001,0.376 0.304,0.682 0.681,0.683 C -0.307,0.682 -0.001,0.377 0,0" /></g><g
         transform="translate(515.7939,365.1465)"
         id="g1772"
         style="fill:#aa0000"><path
           inkscape:connector-curvature="0"
           id="path1774"
           style="fill:#aa0000;fill-opacity:1;fill-rule:nonzero;stroke:none"
           d="m 0,0 c 0.001,-1.334 -1.079,-2.417 -2.413,-2.418 -1.335,-10e-4 -2.417,1.079 -2.419,2.413 -0.001,1.334 1.079,2.417 2.413,2.418 C -1.084,2.415 -0.002,1.334 0,0" /></g><g
         transform="translate(508.7715,367.4312)"
         id="g1776"
         style="fill:#aa0000"><path
           inkscape:connector-curvature="0"
           id="path1778"
           style="fill:#aa0000;fill-opacity:1;fill-rule:nonzero;stroke:none"
           d="m 0,0 c 0.001,-0.619 -0.501,-1.122 -1.12,-1.123 -0.62,0 -1.122,0.501 -1.123,1.121 -0.001,0.619 0.501,1.122 1.12,1.123 C -0.503,1.121 0,0.62 0,0" /></g><g
         transform="translate(513.8984,369.2935)"
         id="g1780"
         style="fill:#aa0000"><path
           inkscape:connector-curvature="0"
           id="path1782"
           style="fill:#aa0000;fill-opacity:1;fill-rule:nonzero;stroke:none"
           d="m 0,0 c 0.001,-0.812 -0.656,-1.471 -1.469,-1.472 -0.811,-0.001 -1.47,0.657 -1.471,1.469 -10e-4,0.812 0.657,1.471 1.468,1.472 C -0.659,1.47 0,0.812 0,0" /></g><g
         transform="translate(513.3945,348.5757)"
         id="g1784"
         style="fill:#aa0000"><path
           inkscape:connector-curvature="0"
           id="path1786"
           style="fill:#aa0000;fill-opacity:1;fill-rule:nonzero;stroke:none"
           d="m 0,0 c 0.001,-0.797 -0.645,-1.445 -1.442,-1.446 -0.798,0 -1.445,0.646 -1.446,1.443 -10e-4,0.798 0.645,1.445 1.443,1.446 C -0.647,1.444 -0.001,0.798 0,0" /></g><g
         transform="translate(517.7559,346.0068)"
         id="g1788"
         style="fill:#aa0000"><path
           inkscape:connector-curvature="0"
           id="path1790"
           style="fill:#aa0000;fill-opacity:1;fill-rule:nonzero;stroke:none"
           d="m 0,0 c 0.001,-0.624 -0.504,-1.129 -1.128,-1.13 -0.623,-0.001 -1.129,0.504 -1.13,1.128 -10e-4,0.624 0.504,1.129 1.128,1.13 C -0.507,1.129 0,0.624 0,0" /></g><g
         transform="translate(515.791,342.0137)"
         id="g1792"
         style="fill:#aa0000"><path
           inkscape:connector-curvature="0"
           id="path1794"
           style="fill:#aa0000;fill-opacity:1;fill-rule:nonzero;stroke:none"
           d="m 0,0 c 0.001,-1.059 -0.856,-1.917 -1.915,-1.918 -1.059,-0.001 -1.918,0.856 -1.919,1.914 -10e-4,1.059 0.856,1.918 1.915,1.919 C -0.86,1.916 -0.001,1.059 0,0" /></g></g></g></g>


</g></svg>