<?xml version="1.0" encoding="UTF-8" standalone="no"?>
<svg
   xmlns:dc="http://purl.org/dc/elements/1.1/"
   xmlns:cc="http://creativecommons.org/ns#"
   xmlns:rdf="http://www.w3.org/1999/02/22-rdf-syntax-ns#"
   xmlns:svg="http://www.w3.org/2000/svg"
   xmlns="http://www.w3.org/2000/svg"
   xmlns:sodipodi="http://sodipodi.sourceforge.net/DTD/sodipodi-0.dtd"
   xmlns:inkscape="http://www.inkscape.org/namespaces/inkscape"
   height="469pt"
   viewBox="0 0 469 469.33333"
   width="469pt"
   version="1.1"
   id="svg4"
   sodipodi:docname="list_icon.svg"
   inkscape:version="0.92.4 (5da689c313, 2019-01-14)">
  <metadata
     id="metadata10">
    <rdf:RDF>
      <cc:Work
         rdf:about="">
        <dc:format>image/svg+xml</dc:format>
        <dc:type
           rdf:resource="http://purl.org/dc/dcmitype/StillImage" />
      </cc:Work>
    </rdf:RDF>
  </metadata>
  <defs
     id="defs8" />
  <sodipodi:namedview
     pagecolor="#ffffff"
     bordercolor="#666666"
     borderopacity="1"
     objecttolerance="10"
     gridtolerance="10"
     guidetolerance="10"
     inkscape:pageopacity="0"
     inkscape:pageshadow="2"
     inkscape:window-width="1920"
     inkscape:window-height="1025"
     id="namedview6"
     showgrid="false"
     inkscape:zoom="0.37739872"
     inkscape:cx="320.61582"
     inkscape:cy="312.66667"
     inkscape:window-x="0"
     inkscape:window-y="27"
     inkscape:window-maximized="1"
     inkscape:current-layer="svg4" />
  <path
     d="m233.765625 0c-122.410156 0-222.804687 93.738281-233.597656 213.332031h190.933593v-64c0-8.617187 5.203126-16.402343 13.160157-19.710937 7.980469-3.304688 17.152343-1.472656 23.253906 4.628906l85.332031 85.335938c8.34375 8.339843 8.34375 21.820312 0 30.164062l-85.332031 85.332031c-6.101563 6.101563-15.273437 7.9375-23.253906 4.628907-7.957031-3.304688-13.160157-11.09375-13.160157-19.710938v-64h-190.933593c10.792969 119.59375 111.1875 213.332031 233.597656 213.332031 129.601563 0 234.667969-105.066406 234.667969-234.664062 0-129.601563-105.066406-234.667969-234.667969-234.667969zm0 0"
     id="path2"
     style="fill:#b7791f;fill-opacity:1" />
</svg>
