<?xml version="1.0" encoding="UTF-8" standalone="no"?>
<!-- Created with Inkscape (http://www.inkscape.org/) -->

<svg
   xmlns:dc="http://purl.org/dc/elements/1.1/"
   xmlns:cc="http://creativecommons.org/ns#"
   xmlns:rdf="http://www.w3.org/1999/02/22-rdf-syntax-ns#"
   xmlns:svg="http://www.w3.org/2000/svg"
   xmlns="http://www.w3.org/2000/svg"
   xmlns:sodipodi="http://sodipodi.sourceforge.net/DTD/sodipodi-0.dtd"
   xmlns:inkscape="http://www.inkscape.org/namespaces/inkscape"
   version="1.1"
   id="svg2"
   xml:space="preserve"
   width="297.55533"
   height="184.0372"
   viewBox="0 0 297.55533 184.0372"
   sodipodi:docname="stay_at_home.svg"
   inkscape:version="0.92.4 (5da689c313, 2019-01-14)"><metadata
     id="metadata8"><rdf:RDF><cc:Work
         rdf:about=""><dc:format>image/svg+xml</dc:format><dc:type
           rdf:resource="http://purl.org/dc/dcmitype/StillImage" /><dc:title></dc:title></cc:Work></rdf:RDF></metadata><defs
     id="defs6"><clipPath
       clipPathUnits="userSpaceOnUse"
       id="clipPath18"><path
         d="M 0,500 H 500 V 0 H 0 Z"
         id="path16"
         inkscape:connector-curvature="0" /></clipPath><clipPath
       clipPathUnits="userSpaceOnUse"
       id="clipPath110"><path
         d="M 69.0835,342.2 H 106.667 V 300.288 H 69.0835 Z"
         id="path108"
         inkscape:connector-curvature="0" /></clipPath><clipPath
       clipPathUnits="userSpaceOnUse"
       id="clipPath114"><path
         d="m 69.0835,342.2 h 3.2214 v -41.912 h -3.2214 z"
         id="path112"
         inkscape:connector-curvature="0" /></clipPath><clipPath
       clipPathUnits="userSpaceOnUse"
       id="clipPath118"><path
         d="m 74.8105,342.2 h 3.2214 v -41.912 h -3.2214 z"
         id="path116"
         inkscape:connector-curvature="0" /></clipPath><clipPath
       clipPathUnits="userSpaceOnUse"
       id="clipPath122"><path
         d="m 80.5375,342.2 h 3.2214 v -41.912 h -3.2214 z"
         id="path120"
         inkscape:connector-curvature="0" /></clipPath><clipPath
       clipPathUnits="userSpaceOnUse"
       id="clipPath126"><path
         d="m 86.2645,342.2 h 3.2214 v -41.912 h -3.2214 z"
         id="path124"
         inkscape:connector-curvature="0" /></clipPath><clipPath
       clipPathUnits="userSpaceOnUse"
       id="clipPath130"><path
         d="m 91.9914,342.2 h 3.2215 v -41.912 h -3.2215 z"
         id="path128"
         inkscape:connector-curvature="0" /></clipPath><clipPath
       clipPathUnits="userSpaceOnUse"
       id="clipPath134"><path
         d="M 97.7184,342.2 H 100.94 V 300.288 H 97.7184 Z"
         id="path132"
         inkscape:connector-curvature="0" /></clipPath><clipPath
       clipPathUnits="userSpaceOnUse"
       id="clipPath138"><path
         d="m 103.445,342.2 h 3.222 v -41.912 h -3.222 z"
         id="path136"
         inkscape:connector-curvature="0" /></clipPath><clipPath
       clipPathUnits="userSpaceOnUse"
       id="clipPath762"><path
         d="M 0,500 H 500 V 0 H 0 Z"
         id="path760"
         inkscape:connector-curvature="0" /></clipPath></defs><sodipodi:namedview
     pagecolor="#ffffff"
     bordercolor="#666666"
     borderopacity="1"
     objecttolerance="10"
     gridtolerance="10"
     guidetolerance="10"
     inkscape:pageopacity="0"
     inkscape:pageshadow="2"
     inkscape:window-width="1920"
     inkscape:window-height="1025"
     id="namedview4"
     showgrid="false"
     fit-margin-top="0"
     fit-margin-left="0"
     fit-margin-right="0"
     fit-margin-bottom="0"
     inkscape:zoom="0.70799998"
     inkscape:cx="40.090473"
     inkscape:cy="-180.74752"
     inkscape:window-x="0"
     inkscape:window-y="27"
     inkscape:window-maximized="1"
     inkscape:current-layer="g14" /><g
     id="g10"
     inkscape:groupmode="layer"
     inkscape:label="413081-PDK0A7-409"
     transform="matrix(1.3333333,0,0,-1.3333333,-49.681954,590.64152)"><g
       id="g12"><g
         id="g14"
         clip-path="url(#clipPath18)"><g
           id="g1787"
           transform="translate(3.1779663,7.4152547)"><g
             transform="translate(233.0835,332.7046)"
             id="g20"><path
               inkscape:connector-curvature="0"
               id="path22"
               style="fill:#c3ea86;fill-opacity:1;fill-rule:nonzero;stroke:none"
               d="m 0,0 c 0,-9.389 -7.611,-17 -17,-17 -9.389,0 -17,7.611 -17,17 0,9.389 7.611,17 17,17 C -7.611,17 0,9.389 0,0" /></g><g
             transform="translate(225.75,316.3711)"
             id="g24"><path
               inkscape:connector-curvature="0"
               id="path26"
               style="fill:#c3ea86;fill-opacity:1;fill-rule:nonzero;stroke:none"
               d="m 0,0 c 0,-9.389 -7.611,-17 -17,-17 -9.389,0 -17,7.611 -17,17 0,9.389 7.611,17 17,17 C -7.611,17 0,9.389 0,0" /></g><g
             transform="translate(237.0835,352.0376)"
             id="g28"><path
               inkscape:connector-curvature="0"
               id="path30"
               style="fill:#c3ea86;fill-opacity:1;fill-rule:nonzero;stroke:none"
               d="m 0,0 c 0,-9.389 -7.611,-17 -17,-17 -9.389,0 -17,7.611 -17,17 0,9.389 7.611,17 17,17 C -7.611,17 0,9.389 0,0" /></g><g
             transform="translate(257.25,322.2876)"
             id="g32"><path
               inkscape:connector-curvature="0"
               id="path34"
               style="fill:#c3ea86;fill-opacity:1;fill-rule:nonzero;stroke:none"
               d="m 0,0 c 0,-12.472 -10.111,-22.583 -22.583,-22.583 -12.473,0 -22.584,10.111 -22.584,22.583 0,12.473 10.111,22.583 22.584,22.583 C -10.111,22.583 0,12.473 0,0" /></g><g
             transform="translate(245.0835,330.7046)"
             id="g36"><path
               inkscape:connector-curvature="0"
               id="path38"
               style="fill:#c3ea86;fill-opacity:1;fill-rule:nonzero;stroke:none"
               d="m 0,0 c 0,-9.389 -7.611,-17 -17,-17 -9.389,0 -17,7.611 -17,17 0,9.389 7.611,17 17,17 C -7.611,17 0,9.389 0,0" /></g><g
             transform="translate(75.417,333.7046)"
             id="g40"><path
               inkscape:connector-curvature="0"
               id="path42"
               style="fill:#c3ea86;fill-opacity:1;fill-rule:nonzero;stroke:none"
               d="m 0,0 c 0,-9.389 -7.611,-17 -17,-17 -9.389,0 -17,7.611 -17,17 0,9.389 7.611,17 17,17 C -7.611,17 0,9.389 0,0" /></g><g
             transform="translate(68.0835,317.3711)"
             id="g44"><path
               inkscape:connector-curvature="0"
               id="path46"
               style="fill:#c3ea86;fill-opacity:1;fill-rule:nonzero;stroke:none"
               d="m 0,0 c 0,-9.389 -7.611,-17 -17,-17 -9.389,0 -17,7.611 -17,17 0,9.389 7.611,17 17,17 C -7.611,17 0,9.389 0,0" /></g><g
             transform="translate(85.417,353.0376)"
             id="g48"><path
               inkscape:connector-curvature="0"
               id="path50"
               style="fill:#c3ea86;fill-opacity:1;fill-rule:nonzero;stroke:none"
               d="m 0,0 c 0,-9.389 -7.611,-17 -17,-17 -9.389,0 -17,7.611 -17,17 0,9.389 7.611,17 17,17 C -7.611,17 0,9.389 0,0" /></g><path
             inkscape:connector-curvature="0"
             id="path52"
             style="fill:#ffc85a;fill-opacity:1;fill-rule:nonzero;stroke:none"
             d="m 225.75,300.746 h -105 V 407.89 h 105 z" /><g
             transform="translate(211.8335,432.7046)"
             id="g54"><path
               inkscape:connector-curvature="0"
               id="path56"
               style="fill:#4b6584;fill-opacity:1;fill-rule:nonzero;stroke:none"
               d="m 0,0 h -123.75 v -37.417 h 147 z" /></g><g
             transform="translate(121.7085,300.3711)"
             id="g58"><path
               inkscape:connector-curvature="0"
               id="path60"
               style="fill:#ffe197;fill-opacity:1;fill-rule:nonzero;stroke:none"
               d="M 0,0 H -68 V 107.144 L -33.333,131.667 0,107.144 Z" /></g><g
             transform="translate(48.8257,396.3569)"
             id="g62"><path
               inkscape:connector-curvature="0"
               id="path64"
               style="fill:#7a8da4;fill-opacity:1;fill-rule:nonzero;stroke:none"
               d="M 0,0 -3.734,4.695 39.668,39.209 79.501,6.327 75.682,1.7 39.598,31.486 Z" /></g><g
             transform="translate(222.8076,341.1626)"
             id="g66"><path
               inkscape:connector-curvature="0"
               id="path68"
               style="fill:#4b6584;fill-opacity:1;fill-rule:nonzero;stroke:none"
               d="m 0,0 h -96.028 c -0.806,0 -1.281,0.904 -0.823,1.568 l 12.935,18.75 c 0.187,0.27 0.494,0.432 0.823,0.432 h 71.719 c 0.35,0 0.674,-0.182 0.855,-0.481 L 0.855,1.519 C 1.259,0.852 0.779,0 0,0" /></g><g
             transform="translate(110.0835,300.2046)"
             id="g70"><path
               inkscape:connector-curvature="0"
               id="path72"
               style="fill:#a97c50;fill-opacity:1;fill-rule:nonzero;stroke:none"
               d="M 0,0 V 43.5 H -44.5 V 0" /></g><g
             transform="translate(111.5835,300.2046)"
             id="g74"><path
               inkscape:connector-curvature="0"
               id="path76"
               style="fill:#f9fbfc;fill-opacity:1;fill-rule:nonzero;stroke:none"
               d="M 0,0 H -3 V 42 H -44.5 V 0 h -3 v 43.5 c 0,0.828 0.671,1.5 1.5,1.5 H -1.5 C -0.671,45 0,44.328 0,43.5 Z" /></g><path
             inkscape:connector-curvature="0"
             id="path78"
             style="fill:#98cbff;fill-opacity:1;fill-rule:nonzero;stroke:none"
             d="m 155.43,368.038 h -15.555 v 18.788 h 15.555 z" /><path
             inkscape:connector-curvature="0"
             id="path80"
             style="fill:#ffffff;fill-opacity:1;fill-rule:nonzero;stroke:none"
             d="m 141.375,369.538 h 12.555 v 15.787 h -12.555 z m 14.055,-3 h -15.555 c -0.829,0 -1.5,0.671 -1.5,1.5 v 18.787 c 0,0.828 0.671,1.5 1.5,1.5 h 15.555 c 0.829,0 1.5,-0.672 1.5,-1.5 v -18.787 c 0,-0.829 -0.671,-1.5 -1.5,-1.5" /><g
             transform="translate(139,300.0376)"
             id="g82"><path
               inkscape:connector-curvature="0"
               id="path84"
               style="fill:#a97c50;fill-opacity:1;fill-rule:nonzero;stroke:none"
               d="M 0,0 V 34.833 H 16.75 V 0" /></g><g
             transform="translate(157.25,300.0376)"
             id="g86"><path
               inkscape:connector-curvature="0"
               id="path88"
               style="fill:#f9fbfc;fill-opacity:1;fill-rule:nonzero;stroke:none"
               d="M 0,0 H -3 V 33.333 H -16.75 V 0 h -3 v 34.833 c 0,0.828 0.671,1.5 1.5,1.5 H -1.5 c 0.829,0 1.5,-0.672 1.5,-1.5 z" /></g><g
             transform="translate(100.5454,389.8921)"
             id="g90"><path
               inkscape:connector-curvature="0"
               id="path92"
               style="fill:#98cbff;fill-opacity:1;fill-rule:nonzero;stroke:none"
               d="M 0,0 C -0.392,7.174 -6.315,12.875 -13.587,12.875 -20.859,12.875 -26.782,7.174 -27.174,0 h -0.038 V -25.104 H 0.038 V 0 Z" /></g><g
             transform="translate(74.8335,366.2876)"
             id="g94"><path
               inkscape:connector-curvature="0"
               id="path96"
               style="fill:#ffffff;fill-opacity:1;fill-rule:nonzero;stroke:none"
               d="m 0,0 h 24.25 v 23.273 c -0.019,0.081 -0.031,0.164 -0.036,0.249 C 23.863,29.947 18.553,34.979 12.125,34.979 5.697,34.979 0.387,29.947 0.036,23.522 0.031,23.436 0.019,23.351 0,23.268 Z M 25.75,-3 H -1.5 C -2.329,-3 -3,-2.328 -3,-1.5 v 25.104 c 0,0.151 0.022,0.296 0.063,0.434 0.609,7.846 7.158,13.941 15.062,13.941 7.904,0 14.453,-6.095 15.062,-13.941 0.041,-0.138 0.063,-0.283 0.063,-0.434 V -1.5 c 0,-0.828 -0.671,-1.5 -1.5,-1.5" /></g><path
             inkscape:connector-curvature="0"
             id="path98"
             style="fill:#ffffff;fill-opacity:1;fill-rule:nonzero;stroke:none"
             d="m 88.458,365.371 h -3 v 37.5 h 3 z" /><path
             inkscape:connector-curvature="0"
             id="path100"
             style="fill:#ffffff;fill-opacity:1;fill-rule:nonzero;stroke:none"
             d="M 100.417,388.205 H 73.584 v 3 h 26.833 z" /><path
             inkscape:connector-curvature="0"
             id="path102"
             style="fill:#98cbff;fill-opacity:1;fill-rule:nonzero;stroke:none"
             d="m 152.667,316.205 h -10.583 v 14.5 h 10.583 z" /><g
             id="g104"><g
               id="g106" /><g
               id="g212"><g
                 style="opacity:0.58000201"
                 id="g210"
                 clip-path="url(#clipPath110)"><g
                   id="g148"><g
                     id="g140" /><g
                     id="g146"><g
                       id="g144"
                       clip-path="url(#clipPath114)"><path
                         inkscape:connector-curvature="0"
                         id="path142"
                         style="fill:#d8aa84;fill-opacity:1;fill-rule:nonzero;stroke:none"
                         d="M 72.305,300.288 H 69.084 V 342.2 h 3.221 z" /></g></g></g><g
                   id="g158"><g
                     id="g150" /><g
                     id="g156"><g
                       id="g154"
                       clip-path="url(#clipPath118)"><path
                         inkscape:connector-curvature="0"
                         id="path152"
                         style="fill:#d8aa84;fill-opacity:1;fill-rule:nonzero;stroke:none"
                         d="M 78.032,300.288 H 74.811 V 342.2 h 3.221 z" /></g></g></g><g
                   id="g168"><g
                     id="g160" /><g
                     id="g166"><g
                       id="g164"
                       clip-path="url(#clipPath122)"><path
                         inkscape:connector-curvature="0"
                         id="path162"
                         style="fill:#d8aa84;fill-opacity:1;fill-rule:nonzero;stroke:none"
                         d="M 83.759,300.288 H 80.538 V 342.2 h 3.221 z" /></g></g></g><g
                   id="g178"><g
                     id="g170" /><g
                     id="g176"><g
                       id="g174"
                       clip-path="url(#clipPath126)"><path
                         inkscape:connector-curvature="0"
                         id="path172"
                         style="fill:#d8aa84;fill-opacity:1;fill-rule:nonzero;stroke:none"
                         d="M 89.486,300.288 H 86.265 V 342.2 h 3.221 z" /></g></g></g><g
                   id="g188"><g
                     id="g180" /><g
                     id="g186"><g
                       id="g184"
                       clip-path="url(#clipPath130)"><path
                         inkscape:connector-curvature="0"
                         id="path182"
                         style="fill:#d8aa84;fill-opacity:1;fill-rule:nonzero;stroke:none"
                         d="M 95.213,300.288 H 91.991 V 342.2 h 3.222 z" /></g></g></g><g
                   id="g198"><g
                     id="g190" /><g
                     id="g196"><g
                       id="g194"
                       clip-path="url(#clipPath134)"><path
                         inkscape:connector-curvature="0"
                         id="path192"
                         style="fill:#d8aa84;fill-opacity:1;fill-rule:nonzero;stroke:none"
                         d="M 100.94,300.288 H 97.718 V 342.2 h 3.222 z" /></g></g></g><g
                   id="g208"><g
                     id="g200" /><g
                     id="g206"><g
                       id="g204"
                       clip-path="url(#clipPath138)"><path
                         inkscape:connector-curvature="0"
                         id="path202"
                         style="fill:#d8aa84;fill-opacity:1;fill-rule:nonzero;stroke:none"
                         d="m 106.667,300.288 h -3.222 V 342.2 h 3.222 z" /></g></g></g></g></g></g><path
             inkscape:connector-curvature="0"
             id="path214"
             style="fill:#98cbff;fill-opacity:1;fill-rule:nonzero;stroke:none"
             d="m 219.75,308.038 h -45.167 v 27.5 h 45.167 z" /><path
             inkscape:connector-curvature="0"
             id="path216"
             style="fill:#ffffff;fill-opacity:1;fill-rule:nonzero;stroke:none"
             d="m 176.083,309.538 h 42.167 v 24.5 h -42.167 z m 43.667,-3 h -45.167 c -0.828,0 -1.5,0.671 -1.5,1.5 v 27.5 c 0,0.828 0.672,1.5 1.5,1.5 h 45.167 c 0.829,0 1.5,-0.672 1.5,-1.5 v -27.5 c 0,-0.829 -0.671,-1.5 -1.5,-1.5" /><path
             inkscape:connector-curvature="0"
             id="path218"
             style="fill:#ffffff;fill-opacity:1;fill-rule:nonzero;stroke:none"
             d="m 206.833,308.538 h -3 v 27 h 3 z" /><path
             inkscape:connector-curvature="0"
             id="path220"
             style="fill:#ffffff;fill-opacity:1;fill-rule:nonzero;stroke:none"
             d="m 191.583,308.538 h -3 v 27 h 3 z" /><path
             inkscape:connector-curvature="0"
             id="path222"
             style="fill:#364a5e;fill-opacity:1;fill-rule:nonzero;stroke:none"
             d="m 223.349,338.33 h -97.094 v 3 h 97.094 z" /><path
             inkscape:connector-curvature="0"
             id="path224"
             style="fill:#364a5e;fill-opacity:1;fill-rule:nonzero;stroke:none"
             d="M 235.06,392.496 H 121.708 v 3 H 235.06 Z" /><path
             inkscape:connector-curvature="0"
             id="path226"
             style="fill:#98cbff;fill-opacity:1;fill-rule:nonzero;stroke:none"
             d="m 202.598,368.038 h -20.807 v 18.788 h 20.807 z" /><path
             inkscape:connector-curvature="0"
             id="path228"
             style="fill:#ffffff;fill-opacity:1;fill-rule:nonzero;stroke:none"
             d="m 183.291,369.538 h 17.807 v 15.787 h -17.807 z m 19.307,-3 h -20.807 c -0.829,0 -1.5,0.671 -1.5,1.5 v 18.787 c 0,0.828 0.671,1.5 1.5,1.5 h 20.807 c 0.828,0 1.5,-0.672 1.5,-1.5 v -18.787 c 0,-0.829 -0.672,-1.5 -1.5,-1.5" /><path
             inkscape:connector-curvature="0"
             id="path230"
             style="fill:#ffffff;fill-opacity:1;fill-rule:nonzero;stroke:none"
             d="m 193.694,368.288 h -3 v 18.375 h 3 z" /><path
             inkscape:connector-curvature="0"
             id="path232"
             style="fill:#ffffff;fill-opacity:1;fill-rule:nonzero;stroke:none"
             d="M 155.583,377.955 H 140 v 3 h 15.583 z" /><g
             transform="translate(212.75,344.7046)"
             id="g234"><path
               inkscape:connector-curvature="0"
               id="path236"
               style="fill:#364a5e;fill-opacity:1;fill-rule:nonzero;stroke:none"
               d="m 0,0 h -56.667 c -0.828,0 -1.5,0.672 -1.5,1.5 0,0.828 0.672,1.5 1.5,1.5 H 0 C 0.829,3 1.5,2.328 1.5,1.5 1.5,0.672 0.829,0 0,0" /></g><g
             transform="translate(181.75,350.7046)"
             id="g238"><path
               inkscape:connector-curvature="0"
               id="path240"
               style="fill:#364a5e;fill-opacity:1;fill-rule:nonzero;stroke:none"
               d="m 0,0 h -43.833 c -0.829,0 -1.5,0.672 -1.5,1.5 0,0.828 0.671,1.5 1.5,1.5 H 0 C 0.829,3 1.5,2.328 1.5,1.5 1.5,0.672 0.829,0 0,0" /></g><g
             transform="translate(189.0835,356.3706)"
             id="g242"><path
               inkscape:connector-curvature="0"
               id="path244"
               style="fill:#364a5e;fill-opacity:1;fill-rule:nonzero;stroke:none"
               d="m 0,0 h -35.5 c -0.829,0 -1.5,0.672 -1.5,1.5 0,0.828 0.671,1.5 1.5,1.5 H 0 C 0.829,3 1.5,2.328 1.5,1.5 1.5,0.672 0.829,0 0,0" /></g><g
             transform="translate(210.25,356.5376)"
             id="g246"><path
               inkscape:connector-curvature="0"
               id="path248"
               style="fill:#364a5e;fill-opacity:1;fill-rule:nonzero;stroke:none"
               d="m 0,0 h -16.167 c -0.828,0 -1.5,0.672 -1.5,1.5 0,0.828 0.672,1.5 1.5,1.5 H 0 C 0.829,3 1.5,2.328 1.5,1.5 1.5,0.672 0.829,0 0,0" /></g><g
             transform="translate(212.917,350.7046)"
             id="g250"><path
               inkscape:connector-curvature="0"
               id="path252"
               style="fill:#364a5e;fill-opacity:1;fill-rule:nonzero;stroke:none"
               d="m 0,0 h -23.833 c -0.829,0 -1.5,0.672 -1.5,1.5 0,0.828 0.671,1.5 1.5,1.5 H 0 C 0.829,3 1.5,2.328 1.5,1.5 1.5,0.672 0.829,0 0,0" /></g><g
             transform="translate(149.0835,345.0376)"
             id="g254"><path
               inkscape:connector-curvature="0"
               id="path256"
               style="fill:#364a5e;fill-opacity:1;fill-rule:nonzero;stroke:none"
               d="m 0,0 h -14.833 c -0.829,0 -1.5,0.672 -1.5,1.5 0,0.828 0.671,1.5 1.5,1.5 H 0 C 0.829,3 1.5,2.328 1.5,1.5 1.5,0.672 0.829,0 0,0" /></g><g
             transform="translate(187.417,400.3706)"
             id="g258"><path
               inkscape:connector-curvature="0"
               id="path260"
               style="fill:#364a5e;fill-opacity:1;fill-rule:nonzero;stroke:none"
               d="m 0,0 h -50.5 c -0.829,0 -1.5,0.672 -1.5,1.5 0,0.828 0.671,1.5 1.5,1.5 H 0 C 0.829,3 1.5,2.328 1.5,1.5 1.5,0.672 0.829,0 0,0" /></g><g
             transform="translate(224.75,400.5376)"
             id="g262"><path
               inkscape:connector-curvature="0"
               id="path264"
               style="fill:#364a5e;fill-opacity:1;fill-rule:nonzero;stroke:none"
               d="m 0,0 h -31.5 c -0.829,0 -1.5,0.672 -1.5,1.5 0,0.828 0.671,1.5 1.5,1.5 H 0 C 0.829,3 1.5,2.328 1.5,1.5 1.5,0.672 0.829,0 0,0" /></g><g
             transform="translate(196.25,407.5376)"
             id="g266"><path
               inkscape:connector-curvature="0"
               id="path268"
               style="fill:#364a5e;fill-opacity:1;fill-rule:nonzero;stroke:none"
               d="m 0,0 h -65.833 c -0.829,0 -1.5,0.672 -1.5,1.5 0,0.828 0.671,1.5 1.5,1.5 H 0 C 0.829,3 1.5,2.328 1.5,1.5 1.5,0.672 0.829,0 0,0" /></g><g
             transform="translate(221.5835,407.8706)"
             id="g270"><path
               inkscape:connector-curvature="0"
               id="path272"
               style="fill:#364a5e;fill-opacity:1;fill-rule:nonzero;stroke:none"
               d="m 0,0 h -19.167 c -0.828,0 -1.5,0.672 -1.5,1.5 0,0.828 0.672,1.5 1.5,1.5 H 0 C 0.829,3 1.5,2.328 1.5,1.5 1.5,0.672 0.829,0 0,0" /></g><g
             transform="translate(217.5835,415.0376)"
             id="g274"><path
               inkscape:connector-curvature="0"
               id="path276"
               style="fill:#364a5e;fill-opacity:1;fill-rule:nonzero;stroke:none"
               d="m 0,0 h -85 c -0.829,0 -1.5,0.672 -1.5,1.5 0,0.828 0.671,1.5 1.5,1.5 H 0 C 0.829,3 1.5,2.328 1.5,1.5 1.5,0.672 0.829,0 0,0" /></g><g
             transform="translate(164.0835,421.3706)"
             id="g278"><path
               inkscape:connector-curvature="0"
               id="path280"
               style="fill:#364a5e;fill-opacity:1;fill-rule:nonzero;stroke:none"
               d="m 0,0 h -52.833 c -0.829,0 -1.5,0.672 -1.5,1.5 0,0.828 0.671,1.5 1.5,1.5 H 0 C 0.829,3 1.5,2.328 1.5,1.5 1.5,0.672 0.829,0 0,0" /></g><g
             transform="translate(188.917,421.3706)"
             id="g282"><path
               inkscape:connector-curvature="0"
               id="path284"
               style="fill:#364a5e;fill-opacity:1;fill-rule:nonzero;stroke:none"
               d="m 0,0 h -18.667 c -0.829,0 -1.5,0.672 -1.5,1.5 0,0.828 0.671,1.5 1.5,1.5 H 0 C 0.829,3 1.5,2.328 1.5,1.5 1.5,0.672 0.829,0 0,0" /></g><g
             transform="translate(213.25,421.2046)"
             id="g286"><path
               inkscape:connector-curvature="0"
               id="path288"
               style="fill:#364a5e;fill-opacity:1;fill-rule:nonzero;stroke:none"
               d="m 0,0 h -18.5 c -0.829,0 -1.5,0.672 -1.5,1.5 0,0.828 0.671,1.5 1.5,1.5 H 0 C 0.829,3 1.5,2.328 1.5,1.5 1.5,0.672 0.829,0 0,0" /></g><g
             transform="translate(207.417,427.2046)"
             id="g290"><path
               inkscape:connector-curvature="0"
               id="path292"
               style="fill:#364a5e;fill-opacity:1;fill-rule:nonzero;stroke:none"
               d="m 0,0 h -102.333 c -0.829,0 -1.5,0.672 -1.5,1.5 0,0.828 0.671,1.5 1.5,1.5 H 0 C 0.829,3 1.5,2.328 1.5,1.5 1.5,0.672 0.829,0 0,0" /></g><g
             transform="translate(117.8335,380.7876)"
             id="g294"><path
               inkscape:connector-curvature="0"
               id="path296"
               style="fill:#fcd57e;fill-opacity:1;fill-rule:nonzero;stroke:none"
               d="m 0,0 h -9.5 c -1.657,0 -3,1.343 -3,3 0,1.657 1.343,3 3,3 H 0 C 1.657,6 3,4.657 3,3 3,1.343 1.657,0 0,0" /></g><g
             transform="translate(89.5835,409.0376)"
             id="g298"><path
               inkscape:connector-curvature="0"
               id="path300"
               style="fill:#fcd57e;fill-opacity:1;fill-rule:nonzero;stroke:none"
               d="m 0,0 h -9.167 c -1.656,0 -3,1.343 -3,3 0,1.657 1.344,3 3,3 H 0 C 1.657,6 3,4.657 3,3 3,1.343 1.657,0 0,0" /></g><g
             transform="translate(67.417,347.7046)"
             id="g302"><path
               inkscape:connector-curvature="0"
               id="path304"
               style="fill:#fcd57e;fill-opacity:1;fill-rule:nonzero;stroke:none"
               d="m 0,0 h -9.167 c -1.657,0 -3,1.343 -3,3 0,1.657 1.343,3 3,3 H 0 C 1.657,6 3,4.657 3,3 3,1.343 1.657,0 0,0" /></g><g
             transform="translate(113.0835,372.5376)"
             id="g306"><path
               inkscape:connector-curvature="0"
               id="path308"
               style="fill:#fcd57e;fill-opacity:1;fill-rule:nonzero;stroke:none"
               d="m 0,0 h -5.333 c -1.657,0 -3,1.343 -3,3 0,1.657 1.343,3 3,3 H 0 C 1.657,6 3,4.657 3,3 3,1.343 1.657,0 0,0" /></g><g
             transform="translate(62.917,354.5376)"
             id="g310"><path
               inkscape:connector-curvature="0"
               id="path312"
               style="fill:#fcd57e;fill-opacity:1;fill-rule:nonzero;stroke:none"
               d="m 0,0 h -4.333 c -1.657,0 -3,1.343 -3,3 0,1.657 1.343,3 3,3 H 0 C 1.657,6 3,4.657 3,3 3,1.343 1.657,0 0,0" /></g><g
             transform="translate(106.0835,402.7046)"
             id="g314"><path
               inkscape:connector-curvature="0"
               id="path316"
               style="fill:#fcd57e;fill-opacity:1;fill-rule:nonzero;stroke:none"
               d="m 0,0 h -6 c -1.657,0 -3,1.343 -3,3 0,1.657 1.343,3 3,3 H 0 C 1.657,6 3,4.657 3,3 3,1.343 1.657,0 0,0" /></g><path
             inkscape:connector-curvature="0"
             id="path318"
             style="fill:#726658;fill-opacity:1;fill-rule:nonzero;stroke:none"
             d="M 248.083,297.538 H 34.833 v 4 h 213.25 z" /></g></g></g></g></svg>